<svg width="189" height="48" viewBox="0 0 189 48" fill="none" xmlns="http://www.w3.org/2000/svg">
<g id="logo">
<path fill-rule="evenodd" clip-rule="evenodd" d="M46.4475 26.738C46.5225 25.978 46.56 25.218 46.56 24.4555C46.56 23.693 46.5225 22.933 46.4475 22.173C46.3725 21.4155 46.2625 20.6605 46.1125 19.913C45.965 19.1655 45.78 18.428 45.5575 17.698C45.335 16.968 45.08 16.2505 44.7875 15.5455C44.495 14.843 44.17 14.153 43.81 13.4805C43.4525 12.808 43.06 12.1555 42.6375 11.5205C42.2125 10.888 41.76 10.2755 41.275 9.6855C40.7925 9.098 40.28 8.533 39.7425 7.993C39.2025 7.4555 38.6375 6.943 38.0475 6.4605C37.46 5.9755 36.8475 5.523 36.2125 5.098C35.58 4.6755 34.9275 4.283 34.255 3.923C33.5825 3.5655 32.8925 3.238 32.19 2.948C31.485 2.6555 30.7675 2.398 30.0375 2.178C29.3075 1.9555 28.57 1.7705 27.8225 1.623C27.075 1.473 26.32 1.363 25.5625 1.288C24.8025 1.213 24.0425 1.1755 23.28 1.1755C22.5175 1.1755 21.7575 1.213 20.9975 1.288C20.24 1.363 19.485 1.473 18.7375 1.623C17.99 1.7705 17.2525 1.9555 16.5225 2.178C15.7925 2.398 15.075 2.6555 14.37 2.948C13.6675 3.238 12.9775 3.5655 12.305 3.923C11.6325 4.283 10.98 4.6755 10.3475 5.098C9.7125 5.523 9.1 5.9755 8.5125 6.4605C7.9225 6.943 7.3575 7.4555 6.8175 7.993C6.28 8.533 5.7675 9.098 5.285 9.6855C4.8 10.2755 4.3475 10.888 3.9225 11.5205C3.5 12.1555 3.1075 12.808 2.75 13.4805C2.39 14.153 2.065 14.843 1.7725 15.5455C1.48 16.2505 1.225 16.968 1.0025 17.698C0.78 18.428 0.595 19.1655 0.4475 19.913C0.2975 20.6605 0.1875 21.4155 0.1125 22.173C0.0375003 22.933 0 23.693 0 24.4555C0 25.218 0.0375003 25.978 0.1125 26.738C0.1875 27.4955 0.2975 28.248 0.4475 28.998C0.595 29.7455 0.78 30.483 1.0025 31.213C1.225 31.943 1.48 32.6605 1.7725 33.363C2.065 34.068 2.39 34.758 2.75 35.428C3.1075 36.1005 3.5 36.7555 3.9225 37.388C4.3475 38.023 4.8 38.6355 5.285 39.223C5.7675 39.813 6.28 40.378 6.8175 40.9155C7.3575 41.4555 7.9225 41.968 8.5125 42.4505C9.1 42.9355 9.7125 43.388 10.3475 43.8105C10.98 44.2355 11.6325 44.628 12.305 44.9855C12.9775 45.3455 13.6675 45.6705 14.37 45.963C15.075 46.2555 15.7925 46.5105 16.5225 46.733C17.2525 46.953 17.99 47.138 18.7375 47.288C19.485 47.4355 20.24 47.548 20.9975 47.623C21.7575 47.698 22.5175 47.7355 23.28 47.7355C24.0425 47.7355 24.8025 47.698 25.5625 47.623C26.32 47.548 27.075 47.4355 27.8225 47.288C28.57 47.138 29.3075 46.953 30.0375 46.733C30.7675 46.5105 31.485 46.2555 32.19 45.963C32.8925 45.6705 33.5825 45.3455 34.255 44.9855C34.9275 44.628 35.58 44.2355 36.2125 43.8105C36.8475 43.388 37.46 42.9355 38.0475 42.4505C38.6375 41.968 39.2025 41.4555 39.7425 40.9155C40.28 40.378 40.7925 39.813 41.275 39.223C41.76 38.6355 42.2125 38.023 42.6375 37.388C43.06 36.7555 43.4525 36.1005 43.81 35.428C44.17 34.758 44.495 34.068 44.7875 33.363C45.08 32.6605 45.335 31.943 45.5575 31.213C45.78 30.483 45.965 29.7455 46.1125 28.998C46.2625 28.248 46.3725 27.4955 46.4475 26.738ZM20.1075 9.963L32.81 23.6955C33.1825 24.1005 33.1825 24.7205 32.81 25.128L20.1075 38.8605C19.905 39.0805 19.6225 39.2005 19.3325 39.2005C19.2025 39.2005 19.07 39.1755 18.945 39.128C18.54 38.9705 18.2725 38.578 18.2725 38.143V31.193C18.2725 30.9255 18.375 30.6655 18.5575 30.4705L24.2325 24.4105L18.56 18.3505C18.375 18.1555 18.2725 17.898 18.2725 17.628V10.678C18.2725 10.243 18.54 9.853 18.945 9.693C19.35 9.538 19.815 9.6405 20.1075 9.963Z" fill="#F71B64"/>
<path d="M109.86 29.499C109.713 29.139 109.203 27.834 108.33 25.579C107.495 23.3665 106.715 21.5165 105.99 20.029H105.94V19.979C105.393 18.7465 104.92 17.909 104.52 17.469C104.373 17.364 104.163 17.2465 103.89 17.119C103.623 16.994 103.29 16.909 102.89 16.869L102.73 16.819H102.62C102.62 16.819 102.583 16.809 102.51 16.789C102.435 16.769 102.363 16.759 102.29 16.759C101.53 16.654 101.005 16.309 100.71 15.729C100.53 15.404 100.44 14.949 100.44 14.369C100.44 13.969 100.525 13.579 100.69 13.199C100.85 12.819 101.148 12.519 101.58 12.299C101.98 12.119 102.433 12.029 102.94 12.029C103.265 11.989 103.503 11.969 103.65 11.969C106.155 11.864 108.153 12.2465 109.64 13.119C111.125 13.9865 112.36 15.494 113.34 17.639C113.373 17.7465 114.08 19.5065 115.46 22.919C116.365 25.239 117.145 27.159 117.8 28.679L119.33 24.659L122.05 17.359C122.123 17.179 122.175 17.0165 122.21 16.869C122.063 16.8365 121.915 16.819 121.77 16.819C121.63 16.819 121.47 16.819 121.29 16.819H120.96C120.665 16.819 120.403 16.784 120.17 16.709C119.935 16.6365 119.693 16.509 119.44 16.329C119.04 15.964 118.803 15.384 118.73 14.589V14.479C118.73 14.0065 118.84 13.554 119.06 13.119C119.453 12.394 120.05 12.029 120.85 12.029H120.91C121.595 12.064 122.245 12.089 122.86 12.109C123.48 12.129 124.06 12.149 124.6 12.169C125.145 12.184 125.655 12.189 126.13 12.189C126.675 12.189 127.783 12.154 129.45 12.079L130.59 12.029H130.65C131.41 12.029 131.99 12.3565 132.39 13.009C132.683 13.484 132.83 13.974 132.83 14.479V14.589C132.755 15.424 132.483 16.019 132.01 16.379C131.61 16.674 131.12 16.819 130.54 16.819C129.96 16.819 129.47 16.8665 129.07 16.959C128.67 17.0465 128.363 17.144 128.15 17.249C127.675 17.544 127.24 18.179 126.84 19.159C126.405 20.319 125.733 22.0065 124.82 24.219C124.1 26.034 123.213 28.209 122.16 30.749C121.793 31.6965 121.41 32.6965 121.01 33.749C120.615 34.804 120.32 35.629 120.12 36.229C119.92 36.824 119.693 37.409 119.44 37.989C119.185 38.569 118.95 39.0115 118.73 39.319C118.51 39.6315 118.255 39.8415 117.97 39.949L117.69 40.119H114.21L113.83 39.349C112.883 37.284 111.56 33.999 109.86 29.499Z" fill="#F71B64"/>
<path d="M52.1887 26.93C52.1887 24.4575 52.5487 22.275 53.2687 20.38C53.9887 18.48 54.9812 16.895 56.2487 15.62C57.5212 14.3475 59.0037 13.38 60.6987 12.72C62.3987 12.055 64.2437 11.72 66.2387 11.72C67.9712 11.72 69.4437 11.935 70.6587 12.36C71.8712 12.78 72.8637 13.37 73.6387 14.13C74.4187 14.885 74.9912 15.7675 75.3587 16.78C75.7237 17.795 75.9087 18.89 75.9087 20.07C75.9087 21.3975 75.5737 22.65 74.9087 23.83C74.2487 25.01 73.3012 26.055 72.0687 26.96C70.8337 27.86 69.3412 28.6075 67.5887 29.2C65.8337 29.7875 63.8537 30.17 61.6487 30.35C61.9012 31.4575 62.3687 32.355 63.0487 33.04C63.7337 33.72 64.7787 34.06 66.1787 34.06C66.9912 34.06 67.8587 33.97 68.7787 33.79C69.6987 33.605 70.5437 33.3975 71.3187 33.17C72.2437 32.9175 73.1487 32.625 74.0287 32.29L75.6887 38.04C74.6937 38.52 73.6087 38.945 72.4287 39.31C71.4337 39.605 70.2812 39.88 68.9687 40.14C67.6612 40.4 66.2712 40.53 64.7987 40.53C62.5512 40.53 60.6237 40.2 59.0187 39.54C57.4187 38.875 56.1112 37.95 55.0987 36.77C54.0837 35.59 53.3437 34.165 52.8787 32.49C52.4187 30.81 52.1887 28.9575 52.1887 26.93ZM65.1287 17.97C64.4287 17.97 63.8287 18.175 63.3287 18.58C62.8337 18.9875 62.4387 19.525 62.1387 20.19C61.8437 20.85 61.6237 21.5875 61.4787 22.4C61.3312 23.2075 61.2412 23.9975 61.2087 24.77C62.3087 24.73 63.2337 24.565 63.9887 24.27C64.7487 23.9775 65.3687 23.61 65.8487 23.17C66.3287 22.725 66.6787 22.245 66.8987 21.73C67.1187 21.21 67.2287 20.73 67.2287 20.29C67.2287 19.59 67.0337 19.03 66.6487 18.61C66.2612 18.185 65.7537 17.97 65.1287 17.97Z" fill="#F71B64"/>
<path d="M93.3985 39.9089V22.6589C93.3985 21.3664 93.241 20.3264 92.9285 19.5389C92.6135 18.7464 92.0335 18.3489 91.1885 18.3489C90.1535 18.3489 89.1935 19.0239 88.3085 20.3689C87.4285 21.7089 86.9885 23.5964 86.9885 26.0289V39.9089H78.2485V25.5289C78.2485 23.3239 78.091 21.4939 77.7785 20.0389C77.4635 18.5789 77.1035 17.3889 76.6985 16.4689C76.2585 15.4364 75.761 14.6064 75.2085 13.9789L82.2285 11.7689C82.561 12.1364 82.8935 12.5589 83.2285 13.0389C83.521 13.4464 83.8035 13.9739 84.0785 14.6189C84.3585 15.2589 84.591 15.9864 84.7785 16.7989C85.731 15.0664 87.0435 13.7964 88.7185 12.9889C90.3985 12.1764 92.2335 11.7689 94.2285 11.7689C97.101 11.7689 99.1435 12.6464 100.359 14.3989C101.579 16.1464 102.189 18.4764 102.189 21.3889V39.9089H93.3985Z" fill="#F71B64"/>
<path d="M139.751 0C141.331 0 142.491 0.3975 143.231 1.19C143.971 1.985 144.341 3.06 144.341 4.42C144.341 5.7475 143.871 6.9 142.931 7.88C141.991 8.855 140.726 9.34 139.141 9.34C137.553 9.34 136.391 8.9375 135.651 8.13C134.916 7.3175 134.551 6.2675 134.551 4.98C134.551 3.655 135.011 2.495 135.931 1.5C136.851 0.5 138.123 0 139.751 0ZM135.711 40.42C133.756 40.42 132.243 39.935 131.171 38.96C130.103 37.98 129.571 36.6775 129.571 35.05C129.571 34.7975 129.586 34.525 129.621 34.23C129.661 33.93 129.716 33.635 129.791 33.34L133.891 12.94H142.341L138.751 31.24C138.676 31.72 138.621 32.035 138.581 32.18C138.546 32.3275 138.531 32.495 138.531 32.68C138.531 32.935 138.566 33.165 138.641 33.37C138.713 33.57 138.916 33.67 139.251 33.67C139.436 33.67 139.666 33.645 139.941 33.59C140.213 33.5375 140.471 33.475 140.711 33.4C140.951 33.32 141.171 33.245 141.371 33.17C141.576 33.0975 141.701 33.06 141.741 33.06V39.03C141.146 39.33 140.521 39.57 139.861 39.75C139.306 39.9375 138.671 40.0925 137.951 40.22C137.231 40.3525 136.483 40.42 135.711 40.42Z" fill="#F71B64"/>
<path d="M155.829 12.146C160.214 12.146 163.412 13.401 165.419 15.906C167.424 18.4135 168.429 21.881 168.429 26.306C168.429 28.406 168.162 30.351 167.629 32.136C167.094 33.9235 166.284 35.4735 165.199 36.786C164.112 38.0935 162.749 39.1235 161.109 39.876C159.469 40.6285 157.559 41.006 155.379 41.006C153.172 41.006 151.264 40.686 149.659 40.046C148.059 39.401 146.752 38.471 145.739 37.256C144.724 36.036 143.969 34.5535 143.469 32.806C142.969 31.0535 142.719 29.086 142.719 26.906C142.719 24.806 142.984 22.8535 143.519 21.046C144.059 19.241 144.872 17.6835 145.959 16.376C147.044 15.071 148.409 14.041 150.049 13.286C151.689 12.526 153.614 12.146 155.829 12.146ZM155.329 18.726C154.662 18.726 154.109 18.921 153.669 19.306C153.229 19.6935 152.889 20.231 152.649 20.916C152.409 21.596 152.242 22.396 152.149 23.316C152.054 24.236 152.009 25.2335 152.009 26.306C152.009 27.406 152.062 28.456 152.169 29.456C152.282 30.451 152.474 31.316 152.749 32.056C153.029 32.791 153.424 33.371 153.939 33.796C154.459 34.216 155.104 34.426 155.879 34.426C156.544 34.426 157.099 34.226 157.539 33.826C157.979 33.421 158.319 32.876 158.559 32.196C158.799 31.511 158.964 30.706 159.059 29.786C159.152 28.866 159.199 27.891 159.199 26.856C159.199 25.711 159.142 24.651 159.029 23.676C158.922 22.696 158.729 21.841 158.449 21.106C158.174 20.366 157.779 19.786 157.259 19.366C156.744 18.941 156.102 18.726 155.329 18.726Z" fill="#F71B64"/>
<path d="M167.405 39.9089V35.0389L177.905 18.6789C177.205 18.7139 176.54 18.7389 175.915 18.7589C175.288 18.7789 174.66 18.7889 174.035 18.7889H168.945L167.845 12.3789H188.135V17.7389L178.185 33.6589C178.665 33.6264 179.135 33.5989 179.595 33.5789C180.055 33.5589 180.54 33.5489 181.055 33.5489H188.635V39.9089H167.405Z" fill="#F71B64"/>
</g>
</svg>
